<?xml version="1.0" encoding="UTF-8"?>
<svg id="Layer_1" data-name="Layer 1" xmlns="http://www.w3.org/2000/svg" viewBox="0 0 256 64">
  <defs>
    <style>
      .cls-1 {
        fill: #fff;
      }
    </style>
  </defs>
  <path class="cls-1" d="M123.94,9.93c16.28-.98,32.28,3.24,41.98,17.08,1.53,2.19,5.58,10.73,7.34,11.47,1.33.56,2.77.36,4.03-.29,2.84-1.46,7.52-12.39,9.39-15.7,2.5-4.44,8.13-17.26,14.8-11.26,3.81,3.42,7.02,19.95,10.44,25.73,7.08,11.98,17.47-3.72,20.07-11.14,1.29-3.69,2.18-11.52,4.68-14.13,1.65-1.73,4.79-2.58,6.79-.96,3.89,3.16-3.29,9.08-5.06,11.36-4.51,5.79-6.74,12.49-10.08,18.87-1.44,2.74-5.91,11.99-8.61,12.61-3.44.79-5.2-.23-6.81-3.12-4.26-7.63-4.81-21.43-10-28.58-3.99-5.5-9.57-3.4-13.22,1.19-5.64,7.09-7.85,25.62-13.27,29.66-8.27,6.16-8.9-10.7-10.51-15.55-5.76-17.37-21.69-26.42-39.68-25.48-4.79.25-20.04,2.57-15.6,10.34,3.64,6.38,31.72,6.82,39.94,13.12,9.37,7.19-.18,14.31-7.79,16.73-11.18,3.56-27.55,4.04-37.03-3.74-4.47-3.67-6.96-10.19-13.72-9.91-5.9.25-10.93,7.47-16.02,10.54-14.8,8.9-55.93,8.18-63.29-10.36-6.42-16.15,13.24-24.85,25.87-27.04,8.69-1.51,30.86-1.96,37.75,3.94,2.37,2.03,5.51,8.21,2.19,10.42-3.08,2.04-5.05-3.3-6.55-5.09-11.07-13.15-43.77-9.95-46.26,8.72-2.93,21.91,31.34,25.79,45.79,18.3,6.82-3.54,12.82-14.08,19.16-15.08,8.31-1.31,10.12,5.61,14.35,10.5,6.13,7.1,17.03,9.41,26.05,8.67,12.29-1.01,17-10.3,3.63-14.71-8.32-2.74-29.98-3.68-34.65-11.17-7.35-11.8,16.93-15.51,23.94-15.94Z"/>
</svg>